HIERARCHY
ROOT Hips
{
 OFFSET 0.000000 0.000000 0.000000
 CHANNELS 6 Xposition Yposition Zposition Yrotation Xrotation Zrotation
 JOINT Chest
 {
  OFFSET 0.000000 9.585900 0.002600
  CHANNELS 3 Yrotation Xrotation Zrotation
  JOINT Chest2
  {
   OFFSET 0.000000 9.601200 -0.005300
   CHANNELS 3 Yrotation Xrotation Zrotation
   JOINT Chest3
   {
    OFFSET 0.000000 9.561800 0.000000
    CHANNELS 3 Yrotation Xrotation Zrotation
    JOINT Chest4
    {
     OFFSET 0.000000 9.552100 0.000000
     CHANNELS 3 Yrotation Xrotation Zrotation
     JOINT Neck
     {
      OFFSET 0.000000 14.453000 0.000000
      CHANNELS 3 Yrotation Xrotation Zrotation
      JOINT Head
      {
       OFFSET 0.000000 8.936500 -0.011300
       CHANNELS 3 Yrotation Xrotation Zrotation
       End Site
       {
        OFFSET 0.000000 17.073600 -0.006000
       }
      }
     }
     JOINT RightCollar
     {
      OFFSET -2.921100 9.558500 0.000000
      CHANNELS 3 Yrotation Xrotation Zrotation
      JOINT RightShoulder
      {
       OFFSET -13.519700 0.000000 0.000000
       CHANNELS 3 Yrotation Xrotation Zrotation
       JOINT RightElbow
       {
        OFFSET 0.000000 -29.696600 0.000000
        CHANNELS 3 Yrotation Xrotation Zrotation
        JOINT RightWrist
        {
         OFFSET 0.000000 -24.004700 0.000000
         CHANNELS 3 Yrotation Xrotation Zrotation
         End Site
         {
          OFFSET 0.000000 -17.728500 0.000000
         }
        }
       }
      }
     }
     JOINT LeftCollar
     {
      OFFSET 2.921100 9.558500 0.000000
      CHANNELS 3 Yrotation Xrotation Zrotation
      JOINT LeftShoulder
      {
       OFFSET 13.519700 0.000000 0.000000
       CHANNELS 3 Yrotation Xrotation Zrotation
       JOINT LeftElbow
       {
        OFFSET 0.000000 -29.696600 0.000000
        CHANNELS 3 Yrotation Xrotation Zrotation
        JOINT LeftWrist
        {
         OFFSET 0.000000 -24.004700 0.000000
         CHANNELS 3 Yrotation Xrotation Zrotation
         End Site
         {
          OFFSET 0.000000 -17.728500 0.000000
         }
        }
       }
      }
     }
    }
   }
  }
 }
 JOINT RightHip
 {
  OFFSET -7.771700 -0.012900 -0.001300
  CHANNELS 3 Yrotation Xrotation Zrotation
  JOINT RightKnee
  {
   OFFSET 0.000000 -40.869800 0.001200
   CHANNELS 3 Yrotation Xrotation Zrotation
   JOINT RightAnkle
   {
    OFFSET 0.000000 -39.717900 0.002100
    CHANNELS 3 Yrotation Xrotation Zrotation
    JOINT RightToe
    {
     OFFSET 0.000000 -4.965400 11.033500
     CHANNELS 3 Yrotation Xrotation Zrotation
     End Site
     {
      OFFSET 0.000000 -1.423100 5.872300
     }
    }
   }
  }
 }
 JOINT LeftHip
 {
  OFFSET 7.771700 -0.012900 -0.001300
  CHANNELS 3 Yrotation Xrotation Zrotation
  JOINT LeftKnee
  {
   OFFSET 0.000000 -40.869800 0.001200
   CHANNELS 3 Yrotation Xrotation Zrotation
   JOINT LeftAnkle
   {
    OFFSET 0.000000 -39.717900 0.002100
    CHANNELS 3 Yrotation Xrotation Zrotation
    JOINT LeftToe
    {
     OFFSET 0.000000 -4.965400 11.033500
     CHANNELS 3 Yrotation Xrotation Zrotation
     End Site
     {
      OFFSET 0.000000 -1.423100 5.872300
     }
    }
   }
  }
 }
}
MOTION
Frames: 12
Frame Time: 0.008333
0.000000 85.388000 0.000000 0.000000 -5.767877 0.000000 0.000000 11.653817 0.000000 0.000000 -5.885947 0.000000 0.000000 -0.000000 0.000000 0.000000 -0.000000 0.000000 0.000000 12.528835 0.000000 0.000000 0.711642 0.000000 0.000000 -0.000000 0.000000 0.000000 0.000000 -90.000000 0.000000 -2.309062 0.000000 0.000000 2.309062 0.000000 0.000000 -0.000000 0.000000 0.000000 -0.000000 90.000000 0.000000 -2.309062 0.000000 0.000000 2.309062 0.000000 0.000000 8.520406 0.000000 0.000000 1.905762 0.000000 -0.000000 -4.658285 0.000000 0.000000 -0.000000 0.000000 0.000000 8.520406 0.000000 0.000000 1.905762 0.000000 -0.000000 -4.658285 0.000000 0.000000 -0.000000 0.000000
-60.784352 43.967311 19.628148 173.763646 -31.264549 -0.190610 0.363189 18.009049 1.865384 -0.017744 2.098608 0.243975 0.014957 3.265886 0.411187 0.200247 15.813631 1.972350 -8.693925 14.224304 -4.875094 -8.347303 -10.516028 -3.350477 8.815255 -5.431911 -17.545399 -15.625552 -9.100157 -11.152631 -113.195920 -47.039235 135.351509 -25.077967 -10.044552 -41.435663 -9.939700 -6.085206 7.239711 23.238287 -7.015066 8.534990 110.716702 -42.285687 -144.799205 33.164012 -8.807854 40.431276 -2.343760 -60.440295 11.125830 -144.909396 65.209932 -142.904131 -9.478215 -28.796092 7.660215 0.040022 -0.683372 0.047897 4.712727 -48.460752 -0.701285 173.864569 61.612172 174.724422 -0.824614 -38.896076 1.786062 0.110705 0.241037 0.058608
-60.780062 43.975705 19.638542 173.771132 -31.339769 -0.202835 0.365781 18.041298 1.877961 -0.009303 2.063148 0.245270 0.012593 3.266685 0.409637 0.201292 15.832097 1.967592 -8.673919 14.269515 -4.890313 -8.317104 -10.472160 -3.368050 8.802937 -5.454013 -17.515246 -15.497563 -9.130691 -11.275685 -113.139069 -47.093786 135.284688 -25.017637 -9.989285 -41.444797 -9.932331 -6.114161 7.247488 23.162045 -6.982595 8.584206 110.661500 -42.240000 -144.847346 33.164093 -8.785725 40.381574 -2.302673 -60.359657 11.097140 -144.984084 65.241380 -142.942777 -9.537763 -28.842513 7.676747 0.059139 -0.601170 0.034091 4.693964 -48.392563 -0.677965 173.838936 61.628373 174.707708 -0.827160 -38.866825 1.780190 0.107696 0.227379 0.054397
-60.775967 43.982558 19.650777 173.780218 -31.414255 -0.210447 0.370857 18.003804 1.885897 -0.002765 2.025220 0.246249 0.003333 3.336112 0.407789 0.216121 15.778046 1.959958 -8.637777 14.366547 -4.914091 -8.315339 -10.403684 -3.373120 8.770202 -5.346850 -17.474078 -15.387932 -9.188260 -11.353295 -113.086428 -47.132780 135.255335 -24.963298 -9.917929 -41.515144 -9.948358 -6.030380 7.242342 23.090684 -6.987093 8.623611 110.643952 -42.200710 -144.910891 33.151257 -8.764263 40.370063 -2.279756 -60.279946 11.080036 -145.038868 65.258775 -142.975127 -9.582567 -28.899926 7.697929 0.076519 -0.532931 0.019768 4.663288 -48.328495 -0.651234 173.839669 61.640390 174.704289 -0.816860 -38.838728 1.770198 0.099712 0.214447 0.051270
-60.771056 43.990095 19.658899 173.783301 -31.519596 -0.213496 0.379693 17.996998 1.890703 -0.002083 2.029425 0.246000 0.001160 3.362649 0.407845 0.211669 15.824283 1.959775 -8.605854 14.378199 -4.925146 -8.285079 -10.352935 -3.387625 8.763844 -5.336354 -17.459201 -15.261205 -9.239755 -11.429253 -113.033514 -47.154733 135.224081 -24.915395 -9.816750 -41.612735 -9.947571 -6.022055 7.240597 22.990021 -7.091857 8.645379 110.619126 -42.208375 -144.891185 33.123982 -8.740178 40.378920 -2.318027 -60.167982 11.127227 -145.036931 65.263893 -142.987554 -9.633566 -28.922034 7.711927 0.127245 -0.541391 0.036163 4.638820 -48.225247 -0.623073 173.845380 61.654240 174.708168 -0.811511 -38.821779 1.764541 0.095383 0.206783 0.047571
-60.769154 43.996200 19.664167 173.782222 -31.634729 -0.193862 0.384437 18.023192 1.875038 -0.001351 2.032348 0.245650 0.002390 3.367273 0.407287 0.205656 15.869311 1.959161 -8.604689 14.408097 -4.928108 -8.225037 -10.320458 -3.408082 8.774120 -5.352577 -17.443663 -15.130040 -9.257206 -11.511288 -112.985297 -47.171753 135.190499 -24.871506 -9.674383 -41.701471 -9.941698 -6.013205 7.238264 22.938931 -7.150335 8.648157 110.624174 -42.215125 -144.951327 33.085685 -8.711829 40.384816 -2.292099 -60.050404 11.097621 -145.054037 65.266205 -143.013258 -9.646625 -28.940940 7.725103 0.124736 -0.562075 0.038607 4.646684 -48.108043 -0.635394 173.840311 61.669817 174.709272 -0.810392 -38.804483 1.755860 0.097919 0.199117 0.047073
-60.773269 43.998920 19.668393 173.777061 -31.738156 -0.138171 0.383027 18.038895 1.825676 -0.000511 2.034799 0.245196 0.000140 3.391406 0.406282 0.230121 15.805566 1.950687 -8.601469 14.512685 -4.934370 -8.198482 -10.269091 -3.409717 8.749177 -5.284016 -17.396959 -15.001308 -9.271981 -11.587094 -112.938550 -47.190550 135.155140 -24.824217 -9.485206 -41.743979 -9.948737 -5.947158 7.231004 22.874215 -7.186588 8.658270 110.634602 -42.233808 -145.008864 33.040616 -8.676069 40.369493 -2.205896 -59.944047 11.001507 -145.049013 65.265358 -143.021004 -9.691201 -28.925119 7.760531 0.156840 -0.596796 0.034540 4.684083 -48.002609 -0.689548 173.848255 61.679980 174.710306 -0.838226 -38.794591 1.761849 0.118306 0.197173 0.054743
-60.774607 43.998062 19.672506 173.766706 -31.826782 -0.101780 0.393807 18.040509 1.802206 0.000205 2.036843 0.244707 -0.010734 3.455609 0.402792 0.254916 15.732913 1.946994 -8.586887 14.582642 -4.937834 -8.209149 -10.228898 -3.406487 8.753146 -5.294453 -17.340894 -14.890565 -9.235258 -11.688441 -112.889494 -47.210105 135.120199 -24.775783 -9.260805 -41.679046 -9.896421 -5.954850 7.220205 22.759345 -7.184015 8.671566 110.643273 -42.255712 -145.065008 32.989771 -8.633875 40.314769 -2.164448 -59.850819 10.955395 -145.030205 65.267273 -143.019251 -9.704344 -28.949020 7.785763 0.155609 -0.622583 0.034018 4.714107 -47.914572 -0.726322 173.851241 61.685948 174.715235 -0.832206 -38.785061 1.756297 0.118842 0.192461 0.053536
-60.777415 43.995202 19.673616 173.759767 -31.916779 -0.064428 0.401192 18.044479 1.779765 -0.002366 2.059402 0.241804 0.004550 3.377147 0.404970 0.246689 15.800174 1.942894 -8.567344 14.630617 -4.943054 -8.168800 -10.178815 -3.409896 8.736155 -5.248210 -17.316498 -14.810787 -9.259244 -11.736527 -112.859086 -47.221262 135.062017 -24.745321 -8.993658 -41.434202 -9.872839 -5.918483 7.213347 22.699330 -7.222014 8.651577 110.641919 -42.272602 -145.118944 32.939539 -8.592830 40.201532 -2.115567 -59.757742 10.898576 -144.977015 65.256836 -142.986474 -9.694597 -28.956228 7.807274 0.144898 -0.653298 0.033623 4.751841 -47.824030 -0.771399 173.864197 61.689183 174.729188 -0.819584 -38.781816 1.754579 0.117347 0.190042 0.052462
-60.783052 43.990007 19.672794 173.737427 -32.000652 -0.009987 0.416667 18.043674 1.749508 -0.001981 2.061457 0.241516 0.009810 3.359941 0.406567 0.243774 15.827466 1.937615 -8.545220 14.672299 -4.947141 -8.130211 -10.135989 -3.417554 8.722369 -5.204660 -17.297553 -14.767303 -9.263111 -11.773056 -112.829556 -47.229197 135.041367 -24.701941 -8.728144 -41.104208 -9.870085 -5.864441 7.202098 22.673814 -7.261647 8.624395 110.628201 -42.278959 -145.172256 32.896424 -8.560346 40.034135 -2.034538 -59.679173 10.809496 -144.942604 65.250744 -142.972865 -9.674648 -28.928198 7.823189 0.140348 -0.682484 0.025201 4.810953 -47.736957 -0.833548 173.879825 61.687843 174.747254 -0.810430 -38.782210 1.748365 0.125855 0.186572 0.057171
-60.786614 43.981277 19.673715 173.732672 -32.058244 0.012576 0.422624 18.018280 1.742907 0.001287 2.042748 0.243987 0.006891 3.383692 0.404310 0.245563 15.833932 1.937105 -8.524932 14.710561 -4.956878 -8.104344 -10.108786 -3.425051 8.714445 -5.183291 -17.273499 -14.748122 -9.227642 -11.811569 -112.794416 -47.281136 135.165535 -24.637168 -8.541280 -40.843565 -9.865928 -5.811283 7.185743 22.652027 -7.271350 8.611703 110.613224 -42.252222 -145.236194 32.859191 -8.542053 39.840090 -1.984936 -59.630997 10.754192 -144.782784 65.214709 -142.836987 -9.585858 -28.851484 7.806294 0.100866 -0.763528 0.046991 4.843883 -47.685986 -0.874122 173.864749 61.679759 174.743422 -0.803257 -38.787041 1.747762 0.127340 0.189646 0.053490
-60.787118 43.974088 19.670069 173.728841 -32.136647 0.011548 0.431187 18.055636 1.753928 0.007415 2.004318 0.250236 0.000396 3.424333 0.398619 0.246140 15.836753 1.937770 -8.445418 14.661322 -4.945557 -8.113104 -10.039749 -3.445829 8.721237 -5.222515 -17.223873 -14.730008 -9.187656 -11.910012 -112.769859 -47.337650 135.246519 -24.574691 -8.332246 -40.573439 -9.835061 -5.810300 7.184396 22.613626 -7.258603 8.597304 110.575672 -42.210352 -145.289135 32.822978 -8.538382 39.657458 -1.963826 -59.561560 10.731949 -144.711307 65.199674 -142.774984 -9.513973 -28.824931 7.780828 0.074154 -0.784173 0.063649 4.874864 -47.610896 -0.907460 173.812341 61.669997 174.723010 -0.753338 -38.784850 1.736358 0.100641 0.179384 0.030853
